<mxfile host="app.diagrams.net" modified="2023-10-29T12:17:25.548Z" agent="Mozilla/5.0 (Macintosh; Intel Mac OS X 10_15_7) AppleWebKit/605.1.15 (KHTML, like Gecko) Version/15.4 Safari/605.1.15" etag="z5cEY4GlK5FRNyV-OzeH" version="22.0.8" type="device">
  <diagram name="Страница — 1" id="LvItpitjbJgqak1Ff7eb">
    <mxGraphModel dx="1026" dy="692" grid="0" gridSize="10" guides="1" tooltips="1" connect="1" arrows="1" fold="1" page="1" pageScale="1" pageWidth="3300" pageHeight="4681" math="0" shadow="0">
      <root>
        <mxCell id="0" />
        <mxCell id="1" parent="0" />
        <mxCell id="VLtTo_zLVV-p8Gwh8xjY-1" value="Admin&lt;br&gt;" style="shape=umlActor;verticalLabelPosition=bottom;verticalAlign=top;html=1;strokeColor=#457B9D;fontColor=#1D3557;fillColor=#A8DADC;labelBackgroundColor=none;" vertex="1" parent="1">
          <mxGeometry x="105" y="120" width="30" height="60" as="geometry" />
        </mxCell>
        <mxCell id="VLtTo_zLVV-p8Gwh8xjY-2" value="UI" style="shape=umlBoundary;whiteSpace=wrap;html=1;strokeColor=#457B9D;fontColor=#1D3557;fillColor=#A8DADC;labelBackgroundColor=none;" vertex="1" parent="1">
          <mxGeometry x="360" y="120" width="70" height="60" as="geometry" />
        </mxCell>
        <mxCell id="VLtTo_zLVV-p8Gwh8xjY-3" value="User Based Back" style="ellipse;shape=umlControl;whiteSpace=wrap;html=1;strokeColor=#457B9D;fontColor=#1D3557;fillColor=#A8DADC;labelBackgroundColor=none;" vertex="1" parent="1">
          <mxGeometry x="650" y="110" width="60" height="70" as="geometry" />
        </mxCell>
        <mxCell id="VLtTo_zLVV-p8Gwh8xjY-4" value="Edit Trans-action" style="ellipse;shape=umlControl;whiteSpace=wrap;html=1;strokeColor=#457B9D;fontColor=#1D3557;fillColor=#A8DADC;labelBackgroundColor=none;" vertex="1" parent="1">
          <mxGeometry x="930" y="110" width="60" height="70" as="geometry" />
        </mxCell>
        <mxCell id="VLtTo_zLVV-p8Gwh8xjY-5" value="Logins DB" style="ellipse;shape=umlEntity;whiteSpace=wrap;html=1;strokeColor=#457B9D;fontColor=#1D3557;fillColor=#A8DADC;labelBackgroundColor=none;" vertex="1" parent="1">
          <mxGeometry x="1210" y="120" width="60" height="60" as="geometry" />
        </mxCell>
        <mxCell id="VLtTo_zLVV-p8Gwh8xjY-6" value="" style="endArrow=none;dashed=1;html=1;dashPattern=1 3;strokeWidth=2;rounded=0;entryX=0.5;entryY=0.5;entryDx=0;entryDy=0;entryPerimeter=0;labelBackgroundColor=none;strokeColor=#457B9D;fontColor=default;" edge="1" parent="1" source="VLtTo_zLVV-p8Gwh8xjY-89" target="VLtTo_zLVV-p8Gwh8xjY-1">
          <mxGeometry width="50" height="50" relative="1" as="geometry">
            <mxPoint x="120" y="2840" as="sourcePoint" />
            <mxPoint x="210" y="330" as="targetPoint" />
          </mxGeometry>
        </mxCell>
        <mxCell id="VLtTo_zLVV-p8Gwh8xjY-7" value="" style="endArrow=none;dashed=1;html=1;dashPattern=1 3;strokeWidth=2;rounded=0;entryX=0.6;entryY=1.017;entryDx=0;entryDy=0;entryPerimeter=0;labelBackgroundColor=none;strokeColor=#457B9D;fontColor=default;" edge="1" parent="1" source="VLtTo_zLVV-p8Gwh8xjY-91" target="VLtTo_zLVV-p8Gwh8xjY-2">
          <mxGeometry width="50" height="50" relative="1" as="geometry">
            <mxPoint x="402" y="2840" as="sourcePoint" />
            <mxPoint x="400" y="190" as="targetPoint" />
          </mxGeometry>
        </mxCell>
        <mxCell id="VLtTo_zLVV-p8Gwh8xjY-8" value="" style="endArrow=none;dashed=1;html=1;dashPattern=1 3;strokeWidth=2;rounded=0;entryX=0.517;entryY=1;entryDx=0;entryDy=0;entryPerimeter=0;labelBackgroundColor=none;strokeColor=#457B9D;fontColor=default;" edge="1" parent="1" source="VLtTo_zLVV-p8Gwh8xjY-93" target="VLtTo_zLVV-p8Gwh8xjY-3">
          <mxGeometry width="50" height="50" relative="1" as="geometry">
            <mxPoint x="681" y="2840" as="sourcePoint" />
            <mxPoint x="681" y="191" as="targetPoint" />
          </mxGeometry>
        </mxCell>
        <mxCell id="VLtTo_zLVV-p8Gwh8xjY-9" value="" style="endArrow=none;dashed=1;html=1;dashPattern=1 3;strokeWidth=2;rounded=0;entryX=0.517;entryY=1.029;entryDx=0;entryDy=0;entryPerimeter=0;labelBackgroundColor=none;strokeColor=#457B9D;fontColor=default;" edge="1" parent="1" target="VLtTo_zLVV-p8Gwh8xjY-4">
          <mxGeometry width="50" height="50" relative="1" as="geometry">
            <mxPoint x="961" y="2840" as="sourcePoint" />
            <mxPoint x="961" y="200" as="targetPoint" />
          </mxGeometry>
        </mxCell>
        <mxCell id="VLtTo_zLVV-p8Gwh8xjY-10" value="" style="endArrow=none;dashed=1;html=1;dashPattern=1 3;strokeWidth=2;rounded=0;entryX=0.5;entryY=1;entryDx=0;entryDy=0;labelBackgroundColor=none;strokeColor=#457B9D;fontColor=default;" edge="1" parent="1" source="VLtTo_zLVV-p8Gwh8xjY-96" target="VLtTo_zLVV-p8Gwh8xjY-5">
          <mxGeometry width="50" height="50" relative="1" as="geometry">
            <mxPoint x="1240" y="2840" as="sourcePoint" />
            <mxPoint x="1241" y="192" as="targetPoint" />
          </mxGeometry>
        </mxCell>
        <mxCell id="VLtTo_zLVV-p8Gwh8xjY-11" value="&#39;Edit Supply&#39; Button Pressed" style="html=1;verticalAlign=bottom;endArrow=block;curved=0;rounded=0;labelBackgroundColor=none;strokeColor=#457B9D;fontColor=default;" edge="1" parent="1">
          <mxGeometry width="80" relative="1" as="geometry">
            <mxPoint x="120" y="240" as="sourcePoint" />
            <mxPoint x="400" y="240" as="targetPoint" />
          </mxGeometry>
        </mxCell>
        <mxCell id="VLtTo_zLVV-p8Gwh8xjY-12" value="Send Request for Supply &#39;Names&#39;, &lt;br&gt;&#39;Departments&#39;, &#39;Working Markers&#39; and &#39;emails&#39; List" style="html=1;verticalAlign=bottom;endArrow=block;curved=0;rounded=0;labelBackgroundColor=none;strokeColor=#457B9D;fontColor=default;" edge="1" parent="1">
          <mxGeometry width="80" relative="1" as="geometry">
            <mxPoint x="400" y="280" as="sourcePoint" />
            <mxPoint x="680" y="280" as="targetPoint" />
          </mxGeometry>
        </mxCell>
        <mxCell id="VLtTo_zLVV-p8Gwh8xjY-13" value="Get Supply &#39;Names&#39;, &lt;br&gt;&#39;Departments&#39;, &#39;Working Markers&#39;&amp;nbsp;and &#39;emails&#39;&lt;br&gt;&amp;nbsp;List and RSA Keys" style="html=1;verticalAlign=bottom;endArrow=block;curved=0;rounded=0;labelBackgroundColor=none;strokeColor=#457B9D;fontColor=default;" edge="1" parent="1">
          <mxGeometry width="80" relative="1" as="geometry">
            <mxPoint x="680" y="320" as="sourcePoint" />
            <mxPoint x="1240" y="320" as="targetPoint" />
            <mxPoint as="offset" />
          </mxGeometry>
        </mxCell>
        <mxCell id="VLtTo_zLVV-p8Gwh8xjY-15" value="Send Supply &#39;Names&#39;, &lt;br&gt;&#39;Departments&#39;, &#39;Working Markers&#39;&amp;nbsp;and &#39;emails&#39;&lt;br&gt;&amp;nbsp;List and RSA Keys" style="html=1;verticalAlign=bottom;endArrow=block;curved=0;rounded=0;labelBackgroundColor=none;strokeColor=#457B9D;fontColor=default;" edge="1" parent="1">
          <mxGeometry width="80" relative="1" as="geometry">
            <mxPoint x="1240" y="460" as="sourcePoint" />
            <mxPoint x="680" y="460" as="targetPoint" />
            <mxPoint as="offset" />
          </mxGeometry>
        </mxCell>
        <mxCell id="VLtTo_zLVV-p8Gwh8xjY-17" value="Send Supply &#39;Names&#39;, &lt;br&gt;&#39;Departments&#39;, &#39;Working Markers&#39;&amp;nbsp;and &#39;emails&#39;&lt;br&gt;&amp;nbsp;List" style="html=1;verticalAlign=bottom;endArrow=block;curved=0;rounded=0;labelBackgroundColor=none;strokeColor=#457B9D;fontColor=default;" edge="1" parent="1">
          <mxGeometry width="80" relative="1" as="geometry">
            <mxPoint x="680" y="620" as="sourcePoint" />
            <mxPoint x="400" y="620" as="targetPoint" />
          </mxGeometry>
        </mxCell>
        <mxCell id="VLtTo_zLVV-p8Gwh8xjY-18" value="Show Supplies List with its &#39;Departments&#39;, &lt;br&gt;&#39;Names&#39; and &#39;Working Markers&#39;&amp;nbsp;and &#39;emails&#39;" style="html=1;verticalAlign=bottom;endArrow=block;curved=0;rounded=0;labelBackgroundColor=none;strokeColor=#457B9D;fontColor=default;" edge="1" parent="1">
          <mxGeometry width="80" relative="1" as="geometry">
            <mxPoint x="400" y="640" as="sourcePoint" />
            <mxPoint x="120" y="640" as="targetPoint" />
          </mxGeometry>
        </mxCell>
        <mxCell id="VLtTo_zLVV-p8Gwh8xjY-19" value="One of the List Items Selected" style="html=1;verticalAlign=bottom;endArrow=block;curved=0;rounded=0;labelBackgroundColor=none;strokeColor=#457B9D;fontColor=default;" edge="1" parent="1">
          <mxGeometry width="80" relative="1" as="geometry">
            <mxPoint x="120" y="680" as="sourcePoint" />
            <mxPoint x="400" y="680" as="targetPoint" />
            <mxPoint as="offset" />
          </mxGeometry>
        </mxCell>
        <mxCell id="VLtTo_zLVV-p8Gwh8xjY-20" value="Show &#39;Edit Name&#39;, &#39;Edit Departments&#39;,&lt;br&gt;&amp;nbsp;&#39;Edit Working Marker&#39; Buttons" style="html=1;verticalAlign=bottom;endArrow=block;curved=0;rounded=0;labelBackgroundColor=none;strokeColor=#457B9D;fontColor=default;" edge="1" parent="1">
          <mxGeometry width="80" relative="1" as="geometry">
            <mxPoint x="400" y="720" as="sourcePoint" />
            <mxPoint x="120" y="720" as="targetPoint" />
          </mxGeometry>
        </mxCell>
        <mxCell id="VLtTo_zLVV-p8Gwh8xjY-22" value="&#39;Edit Name&#39; Button pressed" style="html=1;verticalAlign=bottom;endArrow=block;curved=0;rounded=0;labelBackgroundColor=none;strokeColor=#457B9D;fontColor=default;" edge="1" parent="1">
          <mxGeometry width="80" relative="1" as="geometry">
            <mxPoint x="120" y="840" as="sourcePoint" />
            <mxPoint x="400" y="840" as="targetPoint" />
            <mxPoint as="offset" />
          </mxGeometry>
        </mxCell>
        <mxCell id="VLtTo_zLVV-p8Gwh8xjY-23" value="Show &#39;Enter New Name&#39; Field" style="html=1;verticalAlign=bottom;endArrow=block;curved=0;rounded=0;labelBackgroundColor=none;strokeColor=#457B9D;fontColor=default;" edge="1" parent="1">
          <mxGeometry width="80" relative="1" as="geometry">
            <mxPoint x="400" y="880" as="sourcePoint" />
            <mxPoint x="120" y="880" as="targetPoint" />
            <mxPoint as="offset" />
          </mxGeometry>
        </mxCell>
        <mxCell id="VLtTo_zLVV-p8Gwh8xjY-24" value="Enter &#39;New Name&#39;" style="html=1;verticalAlign=bottom;endArrow=block;curved=0;rounded=0;labelBackgroundColor=none;strokeColor=#457B9D;fontColor=default;" edge="1" parent="1">
          <mxGeometry width="80" relative="1" as="geometry">
            <mxPoint x="120" y="920" as="sourcePoint" />
            <mxPoint x="400" y="920" as="targetPoint" />
            <mxPoint as="offset" />
          </mxGeometry>
        </mxCell>
        <mxCell id="VLtTo_zLVV-p8Gwh8xjY-25" value="&#39;Save&#39; Button Pressed" style="html=1;verticalAlign=bottom;endArrow=block;curved=0;rounded=0;labelBackgroundColor=none;strokeColor=#457B9D;fontColor=default;" edge="1" parent="1">
          <mxGeometry width="80" relative="1" as="geometry">
            <mxPoint x="120" y="960" as="sourcePoint" />
            <mxPoint x="400" y="960" as="targetPoint" />
            <mxPoint as="offset" />
          </mxGeometry>
        </mxCell>
        <mxCell id="VLtTo_zLVV-p8Gwh8xjY-26" value="Send selected Supply &#39;email&#39; and new &#39;Name&#39;" style="html=1;verticalAlign=bottom;endArrow=block;curved=0;rounded=0;labelBackgroundColor=none;strokeColor=#457B9D;fontColor=default;" edge="1" parent="1">
          <mxGeometry width="80" relative="1" as="geometry">
            <mxPoint x="400" y="1000" as="sourcePoint" />
            <mxPoint x="680" y="1000" as="targetPoint" />
            <mxPoint as="offset" />
          </mxGeometry>
        </mxCell>
        <mxCell id="VLtTo_zLVV-p8Gwh8xjY-28" value="Send selected Supply Encoded &#39;email&#39; &lt;br&gt;and new &#39;Name&#39; and RSA key" style="html=1;verticalAlign=bottom;endArrow=block;curved=0;rounded=0;labelBackgroundColor=none;strokeColor=#457B9D;fontColor=default;" edge="1" parent="1">
          <mxGeometry width="80" relative="1" as="geometry">
            <mxPoint x="680" y="1160" as="sourcePoint" />
            <mxPoint x="960" y="1160" as="targetPoint" />
            <mxPoint as="offset" />
          </mxGeometry>
        </mxCell>
        <mxCell id="VLtTo_zLVV-p8Gwh8xjY-29" value="Change Supply &#39;Name&#39;" style="html=1;verticalAlign=bottom;endArrow=block;curved=0;rounded=0;labelBackgroundColor=none;strokeColor=#457B9D;fontColor=default;" edge="1" parent="1">
          <mxGeometry width="80" relative="1" as="geometry">
            <mxPoint x="960" y="1200" as="sourcePoint" />
            <mxPoint x="1240" y="1200" as="targetPoint" />
            <mxPoint as="offset" />
          </mxGeometry>
        </mxCell>
        <mxCell id="VLtTo_zLVV-p8Gwh8xjY-35" value="Send Fail &#39;Notification&#39;" style="html=1;verticalAlign=bottom;endArrow=block;curved=0;rounded=0;strokeColor=#457B9D;fontColor=default;fillColor=#A8DADC;labelBackgroundColor=none;" edge="1" parent="1">
          <mxGeometry x="0.0035" width="80" relative="1" as="geometry">
            <mxPoint x="960" y="1280" as="sourcePoint" />
            <mxPoint x="680" y="1280" as="targetPoint" />
            <mxPoint as="offset" />
          </mxGeometry>
        </mxCell>
        <mxCell id="VLtTo_zLVV-p8Gwh8xjY-36" value="Send Fail &#39;Notification&#39;" style="html=1;verticalAlign=bottom;endArrow=block;curved=0;rounded=0;strokeColor=#457B9D;fontColor=default;fillColor=#A8DADC;labelBackgroundColor=none;" edge="1" parent="1">
          <mxGeometry width="80" relative="1" as="geometry">
            <mxPoint x="680" y="1300" as="sourcePoint" />
            <mxPoint x="400" y="1300" as="targetPoint" />
          </mxGeometry>
        </mxCell>
        <mxCell id="VLtTo_zLVV-p8Gwh8xjY-37" value="Show Fail &#39;Notification&#39;" style="html=1;verticalAlign=bottom;endArrow=block;curved=0;rounded=0;strokeColor=#457B9D;fontColor=default;fillColor=#A8DADC;labelBackgroundColor=none;" edge="1" parent="1">
          <mxGeometry width="80" relative="1" as="geometry">
            <mxPoint x="400" y="1330" as="sourcePoint" />
            <mxPoint x="120" y="1330" as="targetPoint" />
          </mxGeometry>
        </mxCell>
        <mxCell id="VLtTo_zLVV-p8Gwh8xjY-40" value="&#39;Edit Working Marker&#39; Button pressed" style="html=1;verticalAlign=bottom;endArrow=block;curved=0;rounded=0;labelBackgroundColor=none;strokeColor=#457B9D;fontColor=default;" edge="1" parent="1">
          <mxGeometry width="80" relative="1" as="geometry">
            <mxPoint x="120" y="1460" as="sourcePoint" />
            <mxPoint x="400" y="1460" as="targetPoint" />
            <mxPoint as="offset" />
          </mxGeometry>
        </mxCell>
        <mxCell id="VLtTo_zLVV-p8Gwh8xjY-41" value="Show Current &#39;Working Marker&#39; State" style="html=1;verticalAlign=bottom;endArrow=block;curved=0;rounded=0;labelBackgroundColor=none;strokeColor=#457B9D;fontColor=default;" edge="1" parent="1">
          <mxGeometry width="80" relative="1" as="geometry">
            <mxPoint x="400" y="1500" as="sourcePoint" />
            <mxPoint x="120" y="1500" as="targetPoint" />
          </mxGeometry>
        </mxCell>
        <mxCell id="VLtTo_zLVV-p8Gwh8xjY-42" value="Show &#39;Change To Opposite&#39; Button" style="html=1;verticalAlign=bottom;endArrow=block;curved=0;rounded=0;labelBackgroundColor=none;strokeColor=#457B9D;fontColor=default;" edge="1" parent="1">
          <mxGeometry width="80" relative="1" as="geometry">
            <mxPoint x="400" y="1540" as="sourcePoint" />
            <mxPoint x="120" y="1540" as="targetPoint" />
          </mxGeometry>
        </mxCell>
        <mxCell id="VLtTo_zLVV-p8Gwh8xjY-43" value="&#39;Change To Opposite&#39; Button pressed" style="html=1;verticalAlign=bottom;endArrow=block;curved=0;rounded=0;labelBackgroundColor=none;strokeColor=#457B9D;fontColor=default;" edge="1" parent="1">
          <mxGeometry width="80" relative="1" as="geometry">
            <mxPoint x="120" y="1580" as="sourcePoint" />
            <mxPoint x="400" y="1580" as="targetPoint" />
            <mxPoint as="offset" />
          </mxGeometry>
        </mxCell>
        <mxCell id="VLtTo_zLVV-p8Gwh8xjY-44" value="Send &#39;Change To Opposite&#39; Request &lt;br&gt;and selected Supply &#39;email&#39;&amp;nbsp;" style="html=1;verticalAlign=bottom;endArrow=block;curved=0;rounded=0;labelBackgroundColor=none;strokeColor=#457B9D;fontColor=default;" edge="1" parent="1">
          <mxGeometry width="80" relative="1" as="geometry">
            <mxPoint x="400" y="1600" as="sourcePoint" />
            <mxPoint x="680" y="1600" as="targetPoint" />
            <mxPoint as="offset" />
          </mxGeometry>
        </mxCell>
        <mxCell id="VLtTo_zLVV-p8Gwh8xjY-47" value="Send selected Supply Encoded &#39;email&#39; &lt;br&gt;and new &#39;Working Marker&#39; and RSA key" style="html=1;verticalAlign=bottom;endArrow=block;curved=0;rounded=0;labelBackgroundColor=none;strokeColor=#457B9D;fontColor=default;" edge="1" parent="1">
          <mxGeometry width="80" relative="1" as="geometry">
            <mxPoint x="680" y="1860" as="sourcePoint" />
            <mxPoint x="960" y="1860" as="targetPoint" />
            <mxPoint as="offset" />
          </mxGeometry>
        </mxCell>
        <mxCell id="VLtTo_zLVV-p8Gwh8xjY-48" value="Change Supply &#39;Working Marker&#39;" style="html=1;verticalAlign=bottom;endArrow=block;curved=0;rounded=0;labelBackgroundColor=none;strokeColor=#457B9D;fontColor=default;" edge="1" parent="1">
          <mxGeometry width="80" relative="1" as="geometry">
            <mxPoint x="960" y="1900" as="sourcePoint" />
            <mxPoint x="1240" y="1900" as="targetPoint" />
            <mxPoint as="offset" />
          </mxGeometry>
        </mxCell>
        <mxCell id="VLtTo_zLVV-p8Gwh8xjY-55" value="Send Fail &#39;Notification&#39;" style="html=1;verticalAlign=bottom;endArrow=block;curved=0;rounded=0;strokeColor=#457B9D;fontColor=default;fillColor=#A8DADC;labelBackgroundColor=none;" edge="1" parent="1">
          <mxGeometry x="0.0035" width="80" relative="1" as="geometry">
            <mxPoint x="960" y="1970" as="sourcePoint" />
            <mxPoint x="680" y="1970" as="targetPoint" />
            <mxPoint as="offset" />
          </mxGeometry>
        </mxCell>
        <mxCell id="VLtTo_zLVV-p8Gwh8xjY-56" value="Send Fail &#39;Notification&#39;" style="html=1;verticalAlign=bottom;endArrow=block;curved=0;rounded=0;strokeColor=#457B9D;fontColor=default;fillColor=#A8DADC;labelBackgroundColor=none;" edge="1" parent="1">
          <mxGeometry width="80" relative="1" as="geometry">
            <mxPoint x="680" y="1990" as="sourcePoint" />
            <mxPoint x="400" y="1990" as="targetPoint" />
          </mxGeometry>
        </mxCell>
        <mxCell id="VLtTo_zLVV-p8Gwh8xjY-57" value="Show Fail &#39;Notification&#39;" style="html=1;verticalAlign=bottom;endArrow=block;curved=0;rounded=0;strokeColor=#457B9D;fontColor=default;fillColor=#A8DADC;labelBackgroundColor=none;" edge="1" parent="1">
          <mxGeometry width="80" relative="1" as="geometry">
            <mxPoint x="400" y="2020" as="sourcePoint" />
            <mxPoint x="120" y="2020" as="targetPoint" />
          </mxGeometry>
        </mxCell>
        <mxCell id="VLtTo_zLVV-p8Gwh8xjY-58" value="&#39;Edit Departments&#39; Button pressed" style="html=1;verticalAlign=bottom;endArrow=block;curved=0;rounded=0;labelBackgroundColor=none;strokeColor=#457B9D;fontColor=default;" edge="1" parent="1">
          <mxGeometry width="80" relative="1" as="geometry">
            <mxPoint x="120" y="2160" as="sourcePoint" />
            <mxPoint x="400" y="2160" as="targetPoint" />
            <mxPoint as="offset" />
          </mxGeometry>
        </mxCell>
        <mxCell id="VLtTo_zLVV-p8Gwh8xjY-60" value="Send request for &#39;Departments&#39; List" style="html=1;verticalAlign=bottom;endArrow=block;curved=0;rounded=0;strokeColor=#457B9D;fontColor=default;fillColor=#A8DADC;labelBackgroundColor=none;" edge="1" parent="1">
          <mxGeometry width="80" relative="1" as="geometry">
            <mxPoint x="399" y="2185" as="sourcePoint" />
            <mxPoint x="679" y="2185" as="targetPoint" />
          </mxGeometry>
        </mxCell>
        <mxCell id="VLtTo_zLVV-p8Gwh8xjY-61" value="Get &#39;Departments&#39; List" style="html=1;verticalAlign=bottom;endArrow=block;curved=0;rounded=0;strokeColor=#457B9D;fontColor=default;fillColor=#A8DADC;labelBackgroundColor=none;" edge="1" parent="1">
          <mxGeometry width="80" relative="1" as="geometry">
            <mxPoint x="679" y="2206" as="sourcePoint" />
            <mxPoint x="1239" y="2206" as="targetPoint" />
          </mxGeometry>
        </mxCell>
        <mxCell id="VLtTo_zLVV-p8Gwh8xjY-62" value="Send &#39;Departments&#39; List" style="html=1;verticalAlign=bottom;endArrow=block;curved=0;rounded=0;strokeColor=#457B9D;fontColor=default;fillColor=#A8DADC;labelBackgroundColor=none;" edge="1" parent="1">
          <mxGeometry width="80" relative="1" as="geometry">
            <mxPoint x="1239" y="2300" as="sourcePoint" />
            <mxPoint x="679" y="2300" as="targetPoint" />
          </mxGeometry>
        </mxCell>
        <mxCell id="VLtTo_zLVV-p8Gwh8xjY-63" value="Form &#39;Departments&#39; List" style="html=1;verticalAlign=bottom;endArrow=block;curved=0;rounded=0;strokeColor=#457B9D;fontColor=default;fillColor=#A8DADC;labelBackgroundColor=none;" edge="1" parent="1">
          <mxGeometry width="80" relative="1" as="geometry">
            <mxPoint x="1239" y="2220" as="sourcePoint" />
            <mxPoint x="1239" y="2280" as="targetPoint" />
            <Array as="points">
              <mxPoint x="1319" y="2220" />
              <mxPoint x="1319" y="2280" />
            </Array>
          </mxGeometry>
        </mxCell>
        <mxCell id="VLtTo_zLVV-p8Gwh8xjY-64" value="Send &#39;Departments&#39; List" style="html=1;verticalAlign=bottom;endArrow=block;curved=0;rounded=0;strokeColor=#457B9D;fontColor=default;fillColor=#A8DADC;labelBackgroundColor=none;" edge="1" parent="1">
          <mxGeometry width="80" relative="1" as="geometry">
            <mxPoint x="679" y="2321" as="sourcePoint" />
            <mxPoint x="399" y="2321" as="targetPoint" />
          </mxGeometry>
        </mxCell>
        <mxCell id="VLtTo_zLVV-p8Gwh8xjY-65" value="" style="html=1;points=[[0,0,0,0,5],[0,1,0,0,-5],[1,0,0,0,5],[1,1,0,0,-5]];perimeter=orthogonalPerimeter;outlineConnect=0;targetShapes=umlLifeline;portConstraint=eastwest;newEdgeStyle={&quot;curved&quot;:0,&quot;rounded&quot;:0};strokeColor=#457B9D;fontColor=#1D3557;fillColor=#A8DADC;labelBackgroundColor=none;" vertex="1" parent="1">
          <mxGeometry x="1234" y="2220" width="10" height="60" as="geometry" />
        </mxCell>
        <mxCell id="VLtTo_zLVV-p8Gwh8xjY-66" value="" style="html=1;points=[[0,0,0,0,5],[0,1,0,0,-5],[1,0,0,0,5],[1,1,0,0,-5]];perimeter=orthogonalPerimeter;outlineConnect=0;targetShapes=umlLifeline;portConstraint=eastwest;newEdgeStyle={&quot;curved&quot;:0,&quot;rounded&quot;:0};strokeColor=#457B9D;fontColor=#1D3557;fillColor=#A8DADC;labelBackgroundColor=none;" vertex="1" parent="1">
          <mxGeometry x="394" y="2180" width="10" height="140" as="geometry" />
        </mxCell>
        <mxCell id="VLtTo_zLVV-p8Gwh8xjY-67" value="" style="html=1;points=[[0,0,0,0,5],[0,1,0,0,-5],[1,0,0,0,5],[1,1,0,0,-5]];perimeter=orthogonalPerimeter;outlineConnect=0;targetShapes=umlLifeline;portConstraint=eastwest;newEdgeStyle={&quot;curved&quot;:0,&quot;rounded&quot;:0};strokeColor=#457B9D;fontColor=#1D3557;fillColor=#A8DADC;labelBackgroundColor=none;" vertex="1" parent="1">
          <mxGeometry x="674" y="2210" width="10" height="90" as="geometry" />
        </mxCell>
        <mxCell id="VLtTo_zLVV-p8Gwh8xjY-68" value="Show &#39;Departments&#39; List with checkboxes" style="html=1;verticalAlign=bottom;endArrow=block;curved=0;rounded=0;labelBackgroundColor=none;strokeColor=#457B9D;fontColor=default;" edge="1" parent="1">
          <mxGeometry width="80" relative="1" as="geometry">
            <mxPoint x="400" y="2340" as="sourcePoint" />
            <mxPoint x="120" y="2340" as="targetPoint" />
            <mxPoint as="offset" />
          </mxGeometry>
        </mxCell>
        <mxCell id="VLtTo_zLVV-p8Gwh8xjY-69" value="One or more &#39;Departments&#39; Selected" style="html=1;verticalAlign=bottom;endArrow=block;curved=0;rounded=0;labelBackgroundColor=none;strokeColor=#457B9D;fontColor=default;" edge="1" parent="1">
          <mxGeometry width="80" relative="1" as="geometry">
            <mxPoint x="120" y="2380" as="sourcePoint" />
            <mxPoint x="400" y="2380" as="targetPoint" />
            <mxPoint as="offset" />
          </mxGeometry>
        </mxCell>
        <mxCell id="VLtTo_zLVV-p8Gwh8xjY-70" value="&#39;Save&#39; Button Pressed" style="html=1;verticalAlign=bottom;endArrow=block;curved=0;rounded=0;labelBackgroundColor=none;strokeColor=#457B9D;fontColor=default;" edge="1" parent="1">
          <mxGeometry width="80" relative="1" as="geometry">
            <mxPoint x="120" y="2420" as="sourcePoint" />
            <mxPoint x="400" y="2420" as="targetPoint" />
            <mxPoint as="offset" />
          </mxGeometry>
        </mxCell>
        <mxCell id="VLtTo_zLVV-p8Gwh8xjY-71" value="Send New &#39;Departments&#39; List &lt;br&gt;and selected Supply &#39;email&#39;" style="html=1;verticalAlign=bottom;endArrow=block;curved=0;rounded=0;labelBackgroundColor=none;strokeColor=#457B9D;fontColor=default;" edge="1" parent="1">
          <mxGeometry width="80" relative="1" as="geometry">
            <mxPoint x="400" y="2440" as="sourcePoint" />
            <mxPoint x="680" y="2440" as="targetPoint" />
            <mxPoint as="offset" />
          </mxGeometry>
        </mxCell>
        <mxCell id="VLtTo_zLVV-p8Gwh8xjY-72" value="Encode new &#39;Departments&#39; list &lt;br&gt;and selected Supply &#39;email&#39;" style="html=1;verticalAlign=bottom;endArrow=block;curved=0;rounded=0;labelBackgroundColor=none;strokeColor=#457B9D;fontColor=default;" edge="1" parent="1">
          <mxGeometry width="80" relative="1" as="geometry">
            <mxPoint x="680" y="2460" as="sourcePoint" />
            <mxPoint x="680" y="2550" as="targetPoint" />
            <mxPoint as="offset" />
            <Array as="points">
              <mxPoint x="760" y="2460" />
              <mxPoint x="760" y="2550" />
            </Array>
          </mxGeometry>
        </mxCell>
        <mxCell id="VLtTo_zLVV-p8Gwh8xjY-73" value="Send Encoded New &#39;Departments&#39; List &lt;br&gt;and selected Supply &#39;email&#39;" style="html=1;verticalAlign=bottom;endArrow=block;curved=0;rounded=0;labelBackgroundColor=none;strokeColor=#457B9D;fontColor=default;" edge="1" parent="1">
          <mxGeometry width="80" relative="1" as="geometry">
            <mxPoint x="677" y="2600" as="sourcePoint" />
            <mxPoint x="957" y="2600" as="targetPoint" />
            <mxPoint as="offset" />
          </mxGeometry>
        </mxCell>
        <mxCell id="VLtTo_zLVV-p8Gwh8xjY-74" value="Edit Supply Departments" style="html=1;verticalAlign=bottom;endArrow=block;curved=0;rounded=0;labelBackgroundColor=none;strokeColor=#457B9D;fontColor=default;" edge="1" parent="1">
          <mxGeometry width="80" relative="1" as="geometry">
            <mxPoint x="960" y="2640" as="sourcePoint" />
            <mxPoint x="1240" y="2640" as="targetPoint" />
            <mxPoint as="offset" />
          </mxGeometry>
        </mxCell>
        <mxCell id="VLtTo_zLVV-p8Gwh8xjY-83" value="Send Fail &#39;Notification&#39;" style="html=1;verticalAlign=bottom;endArrow=block;curved=0;rounded=0;strokeColor=#457B9D;fontColor=default;fillColor=#A8DADC;labelBackgroundColor=none;" edge="1" parent="1">
          <mxGeometry x="0.0035" width="80" relative="1" as="geometry">
            <mxPoint x="958.82" y="2710" as="sourcePoint" />
            <mxPoint x="678.82" y="2710" as="targetPoint" />
            <mxPoint as="offset" />
          </mxGeometry>
        </mxCell>
        <mxCell id="VLtTo_zLVV-p8Gwh8xjY-84" value="Send Fail &#39;Notification&#39;" style="html=1;verticalAlign=bottom;endArrow=block;curved=0;rounded=0;strokeColor=#457B9D;fontColor=default;fillColor=#A8DADC;labelBackgroundColor=none;" edge="1" parent="1">
          <mxGeometry width="80" relative="1" as="geometry">
            <mxPoint x="678.82" y="2730" as="sourcePoint" />
            <mxPoint x="398.82" y="2730" as="targetPoint" />
          </mxGeometry>
        </mxCell>
        <mxCell id="VLtTo_zLVV-p8Gwh8xjY-85" value="Show Fail &#39;Notification&#39;" style="html=1;verticalAlign=bottom;endArrow=block;curved=0;rounded=0;strokeColor=#457B9D;fontColor=default;fillColor=#A8DADC;labelBackgroundColor=none;" edge="1" parent="1">
          <mxGeometry width="80" relative="1" as="geometry">
            <mxPoint x="398.82" y="2760" as="sourcePoint" />
            <mxPoint x="118.82" y="2760" as="targetPoint" />
          </mxGeometry>
        </mxCell>
        <mxCell id="VLtTo_zLVV-p8Gwh8xjY-90" value="" style="endArrow=none;dashed=1;html=1;dashPattern=1 3;strokeWidth=2;rounded=0;entryX=0.5;entryY=0.5;entryDx=0;entryDy=0;entryPerimeter=0;labelBackgroundColor=none;strokeColor=#457B9D;fontColor=default;" edge="1" parent="1" source="VLtTo_zLVV-p8Gwh8xjY-100" target="VLtTo_zLVV-p8Gwh8xjY-89">
          <mxGeometry width="50" height="50" relative="1" as="geometry">
            <mxPoint x="120" y="2840" as="sourcePoint" />
            <mxPoint x="120" y="150" as="targetPoint" />
          </mxGeometry>
        </mxCell>
        <mxCell id="VLtTo_zLVV-p8Gwh8xjY-89" value="" style="html=1;points=[[0,0,0,0,5],[0,1,0,0,-5],[1,0,0,0,5],[1,1,0,0,-5]];perimeter=orthogonalPerimeter;outlineConnect=0;targetShapes=umlLifeline;portConstraint=eastwest;newEdgeStyle={&quot;curved&quot;:0,&quot;rounded&quot;:0};fillColor=#A8DADC;strokeColor=#457B9D;labelBackgroundColor=none;fontColor=#1D3557;" vertex="1" parent="1">
          <mxGeometry x="115" y="240" width="10" height="400" as="geometry" />
        </mxCell>
        <mxCell id="VLtTo_zLVV-p8Gwh8xjY-92" value="" style="endArrow=none;dashed=1;html=1;dashPattern=1 3;strokeWidth=2;rounded=0;entryX=0.6;entryY=1.017;entryDx=0;entryDy=0;entryPerimeter=0;labelBackgroundColor=none;strokeColor=#457B9D;fontColor=default;" edge="1" parent="1" source="VLtTo_zLVV-p8Gwh8xjY-104" target="VLtTo_zLVV-p8Gwh8xjY-91">
          <mxGeometry width="50" height="50" relative="1" as="geometry">
            <mxPoint x="402" y="2840" as="sourcePoint" />
            <mxPoint x="402" y="181" as="targetPoint" />
          </mxGeometry>
        </mxCell>
        <mxCell id="VLtTo_zLVV-p8Gwh8xjY-91" value="" style="html=1;points=[[0,0,0,0,5],[0,1,0,0,-5],[1,0,0,0,5],[1,1,0,0,-5]];perimeter=orthogonalPerimeter;outlineConnect=0;targetShapes=umlLifeline;portConstraint=eastwest;newEdgeStyle={&quot;curved&quot;:0,&quot;rounded&quot;:0};fillColor=#A8DADC;strokeColor=#457B9D;labelBackgroundColor=none;fontColor=#1D3557;" vertex="1" parent="1">
          <mxGeometry x="400" y="280" width="10" height="340" as="geometry" />
        </mxCell>
        <mxCell id="VLtTo_zLVV-p8Gwh8xjY-94" value="" style="endArrow=none;dashed=1;html=1;dashPattern=1 3;strokeWidth=2;rounded=0;entryX=0.517;entryY=1;entryDx=0;entryDy=0;entryPerimeter=0;labelBackgroundColor=none;strokeColor=#457B9D;fontColor=default;" edge="1" parent="1" source="VLtTo_zLVV-p8Gwh8xjY-106" target="VLtTo_zLVV-p8Gwh8xjY-93">
          <mxGeometry width="50" height="50" relative="1" as="geometry">
            <mxPoint x="681" y="2840" as="sourcePoint" />
            <mxPoint x="681" y="180" as="targetPoint" />
          </mxGeometry>
        </mxCell>
        <mxCell id="VLtTo_zLVV-p8Gwh8xjY-93" value="" style="html=1;points=[[0,0,0,0,5],[0,1,0,0,-5],[1,0,0,0,5],[1,1,0,0,-5]];perimeter=orthogonalPerimeter;outlineConnect=0;targetShapes=umlLifeline;portConstraint=eastwest;newEdgeStyle={&quot;curved&quot;:0,&quot;rounded&quot;:0};fillColor=#A8DADC;strokeColor=#457B9D;labelBackgroundColor=none;fontColor=#1D3557;" vertex="1" parent="1">
          <mxGeometry x="674" y="320" width="10" height="140" as="geometry" />
        </mxCell>
        <mxCell id="VLtTo_zLVV-p8Gwh8xjY-95" value="" style="html=1;points=[[0,0,0,0,5],[0,1,0,0,-5],[1,0,0,0,5],[1,1,0,0,-5]];perimeter=orthogonalPerimeter;outlineConnect=0;targetShapes=umlLifeline;portConstraint=eastwest;newEdgeStyle={&quot;curved&quot;:0,&quot;rounded&quot;:0};fillColor=#A8DADC;strokeColor=#457B9D;labelBackgroundColor=none;fontColor=#1D3557;" vertex="1" parent="1">
          <mxGeometry x="675" y="500" width="10" height="90" as="geometry" />
        </mxCell>
        <mxCell id="VLtTo_zLVV-p8Gwh8xjY-16" value="Decode Supply &#39;Names&#39;, &lt;br&gt;&#39;Departments&#39;, &#39;Working Markers&#39;&amp;nbsp;and &#39;emails&#39;&lt;br&gt;&amp;nbsp;List using RSA keys" style="html=1;verticalAlign=bottom;endArrow=block;curved=0;rounded=0;labelBackgroundColor=none;strokeColor=#457B9D;fontColor=default;" edge="1" parent="1">
          <mxGeometry width="80" relative="1" as="geometry">
            <mxPoint x="680" y="500" as="sourcePoint" />
            <mxPoint x="680" y="590" as="targetPoint" />
            <Array as="points">
              <mxPoint x="760" y="500" />
              <mxPoint x="760" y="590" />
            </Array>
            <mxPoint as="offset" />
          </mxGeometry>
        </mxCell>
        <mxCell id="VLtTo_zLVV-p8Gwh8xjY-97" value="" style="endArrow=none;dashed=1;html=1;dashPattern=1 3;strokeWidth=2;rounded=0;entryX=0.5;entryY=1;entryDx=0;entryDy=0;labelBackgroundColor=none;strokeColor=#457B9D;fontColor=default;" edge="1" parent="1" source="VLtTo_zLVV-p8Gwh8xjY-110" target="VLtTo_zLVV-p8Gwh8xjY-96">
          <mxGeometry width="50" height="50" relative="1" as="geometry">
            <mxPoint x="1240" y="2840" as="sourcePoint" />
            <mxPoint x="1240" y="180" as="targetPoint" />
          </mxGeometry>
        </mxCell>
        <mxCell id="VLtTo_zLVV-p8Gwh8xjY-96" value="" style="html=1;points=[[0,0,0,0,5],[0,1,0,0,-5],[1,0,0,0,5],[1,1,0,0,-5]];perimeter=orthogonalPerimeter;outlineConnect=0;targetShapes=umlLifeline;portConstraint=eastwest;newEdgeStyle={&quot;curved&quot;:0,&quot;rounded&quot;:0};fillColor=#A8DADC;strokeColor=#457B9D;labelBackgroundColor=none;fontColor=#1D3557;" vertex="1" parent="1">
          <mxGeometry x="1234" y="340" width="10" height="90" as="geometry" />
        </mxCell>
        <mxCell id="VLtTo_zLVV-p8Gwh8xjY-14" value="Form Supply &#39;Names&#39;, &lt;br&gt;&#39;Departments&#39;, &#39;Working Markers&#39;&amp;nbsp;and &#39;emails&#39;&lt;br&gt;&amp;nbsp;List and RSA keys" style="html=1;verticalAlign=bottom;endArrow=block;curved=0;rounded=0;labelBackgroundColor=none;strokeColor=#457B9D;fontColor=default;" edge="1" parent="1">
          <mxGeometry width="80" relative="1" as="geometry">
            <mxPoint x="1240" y="340" as="sourcePoint" />
            <mxPoint x="1240" y="430" as="targetPoint" />
            <Array as="points">
              <mxPoint x="1320" y="340" />
              <mxPoint x="1320" y="430" />
            </Array>
            <mxPoint as="offset" />
          </mxGeometry>
        </mxCell>
        <mxCell id="VLtTo_zLVV-p8Gwh8xjY-98" value="" style="html=1;points=[[0,0,0,0,5],[0,1,0,0,-5],[1,0,0,0,5],[1,1,0,0,-5]];perimeter=orthogonalPerimeter;outlineConnect=0;targetShapes=umlLifeline;portConstraint=eastwest;newEdgeStyle={&quot;curved&quot;:0,&quot;rounded&quot;:0};fillColor=#A8DADC;strokeColor=#457B9D;labelBackgroundColor=none;fontColor=#1D3557;" vertex="1" parent="1">
          <mxGeometry x="115" y="680" width="10" height="40" as="geometry" />
        </mxCell>
        <mxCell id="VLtTo_zLVV-p8Gwh8xjY-101" value="" style="endArrow=none;dashed=1;html=1;dashPattern=1 3;strokeWidth=2;rounded=0;entryX=0.5;entryY=0.5;entryDx=0;entryDy=0;entryPerimeter=0;labelBackgroundColor=none;strokeColor=#457B9D;fontColor=default;" edge="1" parent="1" source="VLtTo_zLVV-p8Gwh8xjY-102" target="VLtTo_zLVV-p8Gwh8xjY-100">
          <mxGeometry width="50" height="50" relative="1" as="geometry">
            <mxPoint x="120" y="2840" as="sourcePoint" />
            <mxPoint x="120" y="440" as="targetPoint" />
          </mxGeometry>
        </mxCell>
        <mxCell id="VLtTo_zLVV-p8Gwh8xjY-100" value="" style="html=1;points=[[0,0,0,0,5],[0,1,0,0,-5],[1,0,0,0,5],[1,1,0,0,-5]];perimeter=orthogonalPerimeter;outlineConnect=0;targetShapes=umlLifeline;portConstraint=eastwest;newEdgeStyle={&quot;curved&quot;:0,&quot;rounded&quot;:0};fillColor=#A8DADC;strokeColor=#457B9D;labelBackgroundColor=none;fontColor=#1D3557;" vertex="1" parent="1">
          <mxGeometry x="113.82" y="840" width="10" height="40" as="geometry" />
        </mxCell>
        <mxCell id="VLtTo_zLVV-p8Gwh8xjY-103" value="" style="endArrow=none;dashed=1;html=1;dashPattern=1 3;strokeWidth=2;rounded=0;entryX=0.5;entryY=0.5;entryDx=0;entryDy=0;entryPerimeter=0;labelBackgroundColor=none;strokeColor=#457B9D;fontColor=default;" edge="1" parent="1" source="VLtTo_zLVV-p8Gwh8xjY-112" target="VLtTo_zLVV-p8Gwh8xjY-102">
          <mxGeometry width="50" height="50" relative="1" as="geometry">
            <mxPoint x="120" y="2840" as="sourcePoint" />
            <mxPoint x="119" y="860" as="targetPoint" />
          </mxGeometry>
        </mxCell>
        <mxCell id="VLtTo_zLVV-p8Gwh8xjY-102" value="" style="html=1;points=[[0,0,0,0,5],[0,1,0,0,-5],[1,0,0,0,5],[1,1,0,0,-5]];perimeter=orthogonalPerimeter;outlineConnect=0;targetShapes=umlLifeline;portConstraint=eastwest;newEdgeStyle={&quot;curved&quot;:0,&quot;rounded&quot;:0};fillColor=#A8DADC;strokeColor=#457B9D;labelBackgroundColor=none;fontColor=#1D3557;" vertex="1" parent="1">
          <mxGeometry x="113.82" y="920" width="10" height="410" as="geometry" />
        </mxCell>
        <mxCell id="VLtTo_zLVV-p8Gwh8xjY-105" value="" style="endArrow=none;dashed=1;html=1;dashPattern=1 3;strokeWidth=2;rounded=0;entryX=0.6;entryY=1.017;entryDx=0;entryDy=0;entryPerimeter=0;labelBackgroundColor=none;strokeColor=#457B9D;fontColor=default;" edge="1" parent="1" source="VLtTo_zLVV-p8Gwh8xjY-114" target="VLtTo_zLVV-p8Gwh8xjY-104">
          <mxGeometry width="50" height="50" relative="1" as="geometry">
            <mxPoint x="402" y="2840" as="sourcePoint" />
            <mxPoint x="406" y="626" as="targetPoint" />
          </mxGeometry>
        </mxCell>
        <mxCell id="VLtTo_zLVV-p8Gwh8xjY-104" value="" style="html=1;points=[[0,0,0,0,5],[0,1,0,0,-5],[1,0,0,0,5],[1,1,0,0,-5]];perimeter=orthogonalPerimeter;outlineConnect=0;targetShapes=umlLifeline;portConstraint=eastwest;newEdgeStyle={&quot;curved&quot;:0,&quot;rounded&quot;:0};fillColor=#A8DADC;strokeColor=#457B9D;labelBackgroundColor=none;fontColor=#1D3557;" vertex="1" parent="1">
          <mxGeometry x="400" y="1000" width="10" height="300" as="geometry" />
        </mxCell>
        <mxCell id="VLtTo_zLVV-p8Gwh8xjY-107" value="" style="endArrow=none;dashed=1;html=1;dashPattern=1 3;strokeWidth=2;rounded=0;entryX=0.517;entryY=1;entryDx=0;entryDy=0;entryPerimeter=0;labelBackgroundColor=none;strokeColor=#457B9D;fontColor=default;" edge="1" parent="1" source="VLtTo_zLVV-p8Gwh8xjY-108" target="VLtTo_zLVV-p8Gwh8xjY-106">
          <mxGeometry width="50" height="50" relative="1" as="geometry">
            <mxPoint x="681" y="2840" as="sourcePoint" />
            <mxPoint x="679" y="460" as="targetPoint" />
          </mxGeometry>
        </mxCell>
        <mxCell id="VLtTo_zLVV-p8Gwh8xjY-106" value="" style="html=1;points=[[0,0,0,0,5],[0,1,0,0,-5],[1,0,0,0,5],[1,1,0,0,-5]];perimeter=orthogonalPerimeter;outlineConnect=0;targetShapes=umlLifeline;portConstraint=eastwest;newEdgeStyle={&quot;curved&quot;:0,&quot;rounded&quot;:0};fillColor=#A8DADC;strokeColor=#457B9D;labelBackgroundColor=none;fontColor=#1D3557;" vertex="1" parent="1">
          <mxGeometry x="675" y="1020" width="10" height="90" as="geometry" />
        </mxCell>
        <mxCell id="VLtTo_zLVV-p8Gwh8xjY-27" value="Encode selected Supply &#39;email&#39; and new &#39;Name&#39;" style="html=1;verticalAlign=bottom;endArrow=block;curved=0;rounded=0;labelBackgroundColor=none;strokeColor=#457B9D;fontColor=default;" edge="1" parent="1">
          <mxGeometry width="80" relative="1" as="geometry">
            <mxPoint x="680" y="1020" as="sourcePoint" />
            <mxPoint x="680" y="1110" as="targetPoint" />
            <Array as="points">
              <mxPoint x="760" y="1020" />
              <mxPoint x="760" y="1110" />
            </Array>
            <mxPoint as="offset" />
          </mxGeometry>
        </mxCell>
        <mxCell id="VLtTo_zLVV-p8Gwh8xjY-109" value="" style="endArrow=none;dashed=1;html=1;dashPattern=1 3;strokeWidth=2;rounded=0;entryX=0.517;entryY=1;entryDx=0;entryDy=0;entryPerimeter=0;labelBackgroundColor=none;strokeColor=#457B9D;fontColor=default;" edge="1" parent="1" source="VLtTo_zLVV-p8Gwh8xjY-120" target="VLtTo_zLVV-p8Gwh8xjY-108">
          <mxGeometry width="50" height="50" relative="1" as="geometry">
            <mxPoint x="681" y="2840" as="sourcePoint" />
            <mxPoint x="680" y="1110" as="targetPoint" />
          </mxGeometry>
        </mxCell>
        <mxCell id="VLtTo_zLVV-p8Gwh8xjY-108" value="" style="html=1;points=[[0,0,0,0,5],[0,1,0,0,-5],[1,0,0,0,5],[1,1,0,0,-5]];perimeter=orthogonalPerimeter;outlineConnect=0;targetShapes=umlLifeline;portConstraint=eastwest;newEdgeStyle={&quot;curved&quot;:0,&quot;rounded&quot;:0};fillColor=#A8DADC;strokeColor=#457B9D;labelBackgroundColor=none;fontColor=#1D3557;" vertex="1" parent="1">
          <mxGeometry x="675" y="1160" width="10" height="120" as="geometry" />
        </mxCell>
        <mxCell id="VLtTo_zLVV-p8Gwh8xjY-111" value="" style="endArrow=none;dashed=1;html=1;dashPattern=1 3;strokeWidth=2;rounded=0;entryX=0.5;entryY=1;entryDx=0;entryDy=0;labelBackgroundColor=none;strokeColor=#457B9D;fontColor=default;" edge="1" parent="1" source="VLtTo_zLVV-p8Gwh8xjY-128" target="VLtTo_zLVV-p8Gwh8xjY-110">
          <mxGeometry width="50" height="50" relative="1" as="geometry">
            <mxPoint x="1240" y="2840" as="sourcePoint" />
            <mxPoint x="1239" y="430" as="targetPoint" />
          </mxGeometry>
        </mxCell>
        <mxCell id="VLtTo_zLVV-p8Gwh8xjY-110" value="" style="html=1;points=[[0,0,0,0,5],[0,1,0,0,-5],[1,0,0,0,5],[1,1,0,0,-5]];perimeter=orthogonalPerimeter;outlineConnect=0;targetShapes=umlLifeline;portConstraint=eastwest;newEdgeStyle={&quot;curved&quot;:0,&quot;rounded&quot;:0};fillColor=#A8DADC;strokeColor=#457B9D;labelBackgroundColor=none;fontColor=#1D3557;" vertex="1" parent="1">
          <mxGeometry x="1234" y="1195" width="10" height="25" as="geometry" />
        </mxCell>
        <mxCell id="VLtTo_zLVV-p8Gwh8xjY-113" value="" style="endArrow=none;dashed=1;html=1;dashPattern=1 3;strokeWidth=2;rounded=0;entryX=0.5;entryY=0.5;entryDx=0;entryDy=0;entryPerimeter=0;labelBackgroundColor=none;strokeColor=#457B9D;fontColor=default;" edge="1" parent="1" source="VLtTo_zLVV-p8Gwh8xjY-116" target="VLtTo_zLVV-p8Gwh8xjY-112">
          <mxGeometry width="50" height="50" relative="1" as="geometry">
            <mxPoint x="120" y="2840" as="sourcePoint" />
            <mxPoint x="119" y="1125" as="targetPoint" />
          </mxGeometry>
        </mxCell>
        <mxCell id="VLtTo_zLVV-p8Gwh8xjY-112" value="" style="html=1;points=[[0,0,0,0,5],[0,1,0,0,-5],[1,0,0,0,5],[1,1,0,0,-5]];perimeter=orthogonalPerimeter;outlineConnect=0;targetShapes=umlLifeline;portConstraint=eastwest;newEdgeStyle={&quot;curved&quot;:0,&quot;rounded&quot;:0};fillColor=#A8DADC;strokeColor=#457B9D;labelBackgroundColor=none;fontColor=#1D3557;" vertex="1" parent="1">
          <mxGeometry x="115" y="1460" width="10" height="40" as="geometry" />
        </mxCell>
        <mxCell id="VLtTo_zLVV-p8Gwh8xjY-115" value="" style="endArrow=none;dashed=1;html=1;dashPattern=1 3;strokeWidth=2;rounded=0;entryX=0.6;entryY=1.017;entryDx=0;entryDy=0;entryPerimeter=0;labelBackgroundColor=none;strokeColor=#457B9D;fontColor=default;" edge="1" parent="1" source="VLtTo_zLVV-p8Gwh8xjY-118" target="VLtTo_zLVV-p8Gwh8xjY-114">
          <mxGeometry width="50" height="50" relative="1" as="geometry">
            <mxPoint x="402" y="2840" as="sourcePoint" />
            <mxPoint x="406" y="1305" as="targetPoint" />
          </mxGeometry>
        </mxCell>
        <mxCell id="VLtTo_zLVV-p8Gwh8xjY-114" value="" style="html=1;points=[[0,0,0,0,5],[0,1,0,0,-5],[1,0,0,0,5],[1,1,0,0,-5]];perimeter=orthogonalPerimeter;outlineConnect=0;targetShapes=umlLifeline;portConstraint=eastwest;newEdgeStyle={&quot;curved&quot;:0,&quot;rounded&quot;:0};fillColor=#A8DADC;strokeColor=#457B9D;labelBackgroundColor=none;fontColor=#1D3557;" vertex="1" parent="1">
          <mxGeometry x="400" y="1500" width="10" height="40" as="geometry" />
        </mxCell>
        <mxCell id="VLtTo_zLVV-p8Gwh8xjY-117" value="" style="endArrow=none;dashed=1;html=1;dashPattern=1 3;strokeWidth=2;rounded=0;entryX=0.5;entryY=0.5;entryDx=0;entryDy=0;entryPerimeter=0;labelBackgroundColor=none;strokeColor=#457B9D;fontColor=default;" edge="1" parent="1" source="VLtTo_zLVV-p8Gwh8xjY-130" target="VLtTo_zLVV-p8Gwh8xjY-116">
          <mxGeometry width="50" height="50" relative="1" as="geometry">
            <mxPoint x="120" y="2840" as="sourcePoint" />
            <mxPoint x="120" y="1480" as="targetPoint" />
          </mxGeometry>
        </mxCell>
        <mxCell id="VLtTo_zLVV-p8Gwh8xjY-116" value="" style="html=1;points=[[0,0,0,0,5],[0,1,0,0,-5],[1,0,0,0,5],[1,1,0,0,-5]];perimeter=orthogonalPerimeter;outlineConnect=0;targetShapes=umlLifeline;portConstraint=eastwest;newEdgeStyle={&quot;curved&quot;:0,&quot;rounded&quot;:0};fillColor=#A8DADC;strokeColor=#457B9D;labelBackgroundColor=none;fontColor=#1D3557;" vertex="1" parent="1">
          <mxGeometry x="115" y="1580" width="10" height="440" as="geometry" />
        </mxCell>
        <mxCell id="VLtTo_zLVV-p8Gwh8xjY-119" value="" style="endArrow=none;dashed=1;html=1;dashPattern=1 3;strokeWidth=2;rounded=0;entryX=0.6;entryY=1.017;entryDx=0;entryDy=0;entryPerimeter=0;labelBackgroundColor=none;strokeColor=#457B9D;fontColor=default;" edge="1" parent="1" source="VLtTo_zLVV-p8Gwh8xjY-133" target="VLtTo_zLVV-p8Gwh8xjY-118">
          <mxGeometry width="50" height="50" relative="1" as="geometry">
            <mxPoint x="402" y="2840" as="sourcePoint" />
            <mxPoint x="406" y="1541" as="targetPoint" />
          </mxGeometry>
        </mxCell>
        <mxCell id="VLtTo_zLVV-p8Gwh8xjY-118" value="" style="html=1;points=[[0,0,0,0,5],[0,1,0,0,-5],[1,0,0,0,5],[1,1,0,0,-5]];perimeter=orthogonalPerimeter;outlineConnect=0;targetShapes=umlLifeline;portConstraint=eastwest;newEdgeStyle={&quot;curved&quot;:0,&quot;rounded&quot;:0};fillColor=#A8DADC;strokeColor=#457B9D;labelBackgroundColor=none;fontColor=#1D3557;" vertex="1" parent="1">
          <mxGeometry x="400" y="1600" width="10" height="390" as="geometry" />
        </mxCell>
        <mxCell id="VLtTo_zLVV-p8Gwh8xjY-121" value="" style="endArrow=none;dashed=1;html=1;dashPattern=1 3;strokeWidth=2;rounded=0;entryX=0.517;entryY=1;entryDx=0;entryDy=0;entryPerimeter=0;labelBackgroundColor=none;strokeColor=#457B9D;fontColor=default;" edge="1" parent="1" source="VLtTo_zLVV-p8Gwh8xjY-122" target="VLtTo_zLVV-p8Gwh8xjY-120">
          <mxGeometry width="50" height="50" relative="1" as="geometry">
            <mxPoint x="681" y="2840" as="sourcePoint" />
            <mxPoint x="680" y="1280" as="targetPoint" />
          </mxGeometry>
        </mxCell>
        <mxCell id="VLtTo_zLVV-p8Gwh8xjY-120" value="" style="html=1;points=[[0,0,0,0,5],[0,1,0,0,-5],[1,0,0,0,5],[1,1,0,0,-5]];perimeter=orthogonalPerimeter;outlineConnect=0;targetShapes=umlLifeline;portConstraint=eastwest;newEdgeStyle={&quot;curved&quot;:0,&quot;rounded&quot;:0};fillColor=#A8DADC;strokeColor=#457B9D;labelBackgroundColor=none;fontColor=#1D3557;" vertex="1" parent="1">
          <mxGeometry x="674" y="1620" width="10" height="90" as="geometry" />
        </mxCell>
        <mxCell id="VLtTo_zLVV-p8Gwh8xjY-123" value="" style="endArrow=none;dashed=1;html=1;dashPattern=1 3;strokeWidth=2;rounded=0;entryX=0.517;entryY=1;entryDx=0;entryDy=0;entryPerimeter=0;labelBackgroundColor=none;strokeColor=#457B9D;fontColor=default;" edge="1" parent="1" source="VLtTo_zLVV-p8Gwh8xjY-124" target="VLtTo_zLVV-p8Gwh8xjY-122">
          <mxGeometry width="50" height="50" relative="1" as="geometry">
            <mxPoint x="681" y="2840" as="sourcePoint" />
            <mxPoint x="679" y="1710" as="targetPoint" />
          </mxGeometry>
        </mxCell>
        <mxCell id="VLtTo_zLVV-p8Gwh8xjY-122" value="" style="html=1;points=[[0,0,0,0,5],[0,1,0,0,-5],[1,0,0,0,5],[1,1,0,0,-5]];perimeter=orthogonalPerimeter;outlineConnect=0;targetShapes=umlLifeline;portConstraint=eastwest;newEdgeStyle={&quot;curved&quot;:0,&quot;rounded&quot;:0};fillColor=#A8DADC;strokeColor=#457B9D;labelBackgroundColor=none;fontColor=#1D3557;" vertex="1" parent="1">
          <mxGeometry x="675" y="1730" width="10" height="90" as="geometry" />
        </mxCell>
        <mxCell id="VLtTo_zLVV-p8Gwh8xjY-45" value="Change Working Marker To Opposite for&amp;nbsp;&lt;br&gt;&amp;nbsp;selected Supply &#39;email&#39;&amp;nbsp;" style="html=1;verticalAlign=bottom;endArrow=block;curved=0;rounded=0;labelBackgroundColor=none;strokeColor=#457B9D;fontColor=default;" edge="1" parent="1">
          <mxGeometry width="80" relative="1" as="geometry">
            <mxPoint x="680" y="1620" as="sourcePoint" />
            <mxPoint x="680" y="1710" as="targetPoint" />
            <mxPoint as="offset" />
            <Array as="points">
              <mxPoint x="720" y="1620" />
              <mxPoint x="720" y="1710" />
            </Array>
          </mxGeometry>
        </mxCell>
        <mxCell id="VLtTo_zLVV-p8Gwh8xjY-46" value="Encode selected supply new &#39;Working Marker&#39; and &#39;email&#39;" style="html=1;verticalAlign=bottom;endArrow=block;curved=0;rounded=0;labelBackgroundColor=none;strokeColor=#457B9D;fontColor=default;" edge="1" parent="1">
          <mxGeometry width="80" relative="1" as="geometry">
            <mxPoint x="680" y="1730" as="sourcePoint" />
            <mxPoint x="680" y="1820" as="targetPoint" />
            <mxPoint as="offset" />
            <Array as="points">
              <mxPoint x="720" y="1730" />
              <mxPoint x="720" y="1820" />
            </Array>
          </mxGeometry>
        </mxCell>
        <mxCell id="VLtTo_zLVV-p8Gwh8xjY-125" value="" style="endArrow=none;dashed=1;html=1;dashPattern=1 3;strokeWidth=2;rounded=0;entryX=0.517;entryY=1;entryDx=0;entryDy=0;entryPerimeter=0;labelBackgroundColor=none;strokeColor=#457B9D;fontColor=default;" edge="1" parent="1" source="VLtTo_zLVV-p8Gwh8xjY-136" target="VLtTo_zLVV-p8Gwh8xjY-124">
          <mxGeometry width="50" height="50" relative="1" as="geometry">
            <mxPoint x="681" y="2840" as="sourcePoint" />
            <mxPoint x="680" y="1820" as="targetPoint" />
          </mxGeometry>
        </mxCell>
        <mxCell id="VLtTo_zLVV-p8Gwh8xjY-124" value="" style="html=1;points=[[0,0,0,0,5],[0,1,0,0,-5],[1,0,0,0,5],[1,1,0,0,-5]];perimeter=orthogonalPerimeter;outlineConnect=0;targetShapes=umlLifeline;portConstraint=eastwest;newEdgeStyle={&quot;curved&quot;:0,&quot;rounded&quot;:0};fillColor=#A8DADC;strokeColor=#457B9D;labelBackgroundColor=none;fontColor=#1D3557;" vertex="1" parent="1">
          <mxGeometry x="675" y="1860" width="10" height="110" as="geometry" />
        </mxCell>
        <mxCell id="VLtTo_zLVV-p8Gwh8xjY-126" value="" style="html=1;points=[[0,0,0,0,5],[0,1,0,0,-5],[1,0,0,0,5],[1,1,0,0,-5]];perimeter=orthogonalPerimeter;outlineConnect=0;targetShapes=umlLifeline;portConstraint=eastwest;newEdgeStyle={&quot;curved&quot;:0,&quot;rounded&quot;:0};fillColor=#A8DADC;strokeColor=#457B9D;labelBackgroundColor=none;fontColor=#1D3557;" vertex="1" parent="1">
          <mxGeometry x="955" y="1860" width="10" height="40" as="geometry" />
        </mxCell>
        <mxCell id="VLtTo_zLVV-p8Gwh8xjY-129" value="" style="endArrow=none;dashed=1;html=1;dashPattern=1 3;strokeWidth=2;rounded=0;entryX=0.5;entryY=1;entryDx=0;entryDy=0;labelBackgroundColor=none;strokeColor=#457B9D;fontColor=default;" edge="1" parent="1" source="VLtTo_zLVV-p8Gwh8xjY-141" target="VLtTo_zLVV-p8Gwh8xjY-128">
          <mxGeometry width="50" height="50" relative="1" as="geometry">
            <mxPoint x="1240" y="2840" as="sourcePoint" />
            <mxPoint x="1239" y="1220" as="targetPoint" />
          </mxGeometry>
        </mxCell>
        <mxCell id="VLtTo_zLVV-p8Gwh8xjY-128" value="" style="html=1;points=[[0,0,0,0,5],[0,1,0,0,-5],[1,0,0,0,5],[1,1,0,0,-5]];perimeter=orthogonalPerimeter;outlineConnect=0;targetShapes=umlLifeline;portConstraint=eastwest;newEdgeStyle={&quot;curved&quot;:0,&quot;rounded&quot;:0};fillColor=#A8DADC;strokeColor=#457B9D;labelBackgroundColor=none;fontColor=#1D3557;" vertex="1" parent="1">
          <mxGeometry x="1235" y="1900" width="10" height="20" as="geometry" />
        </mxCell>
        <mxCell id="VLtTo_zLVV-p8Gwh8xjY-131" value="" style="endArrow=none;dashed=1;html=1;dashPattern=1 3;strokeWidth=2;rounded=0;entryX=0.5;entryY=0.5;entryDx=0;entryDy=0;entryPerimeter=0;labelBackgroundColor=none;strokeColor=#457B9D;fontColor=default;" edge="1" parent="1" target="VLtTo_zLVV-p8Gwh8xjY-130">
          <mxGeometry width="50" height="50" relative="1" as="geometry">
            <mxPoint x="120" y="2840" as="sourcePoint" />
            <mxPoint x="120" y="1800" as="targetPoint" />
          </mxGeometry>
        </mxCell>
        <mxCell id="VLtTo_zLVV-p8Gwh8xjY-130" value="" style="html=1;points=[[0,0,0,0,5],[0,1,0,0,-5],[1,0,0,0,5],[1,1,0,0,-5]];perimeter=orthogonalPerimeter;outlineConnect=0;targetShapes=umlLifeline;portConstraint=eastwest;newEdgeStyle={&quot;curved&quot;:0,&quot;rounded&quot;:0};fillColor=#A8DADC;strokeColor=#457B9D;labelBackgroundColor=none;fontColor=#1D3557;" vertex="1" parent="1">
          <mxGeometry x="113.82" y="2160" width="10" height="180" as="geometry" />
        </mxCell>
        <mxCell id="VLtTo_zLVV-p8Gwh8xjY-132" value="" style="html=1;points=[[0,0,0,0,5],[0,1,0,0,-5],[1,0,0,0,5],[1,1,0,0,-5]];perimeter=orthogonalPerimeter;outlineConnect=0;targetShapes=umlLifeline;portConstraint=eastwest;newEdgeStyle={&quot;curved&quot;:0,&quot;rounded&quot;:0};fillColor=#A8DADC;strokeColor=#457B9D;labelBackgroundColor=none;fontColor=#1D3557;" vertex="1" parent="1">
          <mxGeometry x="115" y="2380" width="10" height="380" as="geometry" />
        </mxCell>
        <mxCell id="VLtTo_zLVV-p8Gwh8xjY-135" value="" style="endArrow=none;dashed=1;html=1;dashPattern=1 3;strokeWidth=2;rounded=0;entryX=0.6;entryY=1.017;entryDx=0;entryDy=0;entryPerimeter=0;labelBackgroundColor=none;strokeColor=#457B9D;fontColor=default;" edge="1" parent="1" target="VLtTo_zLVV-p8Gwh8xjY-133">
          <mxGeometry width="50" height="50" relative="1" as="geometry">
            <mxPoint x="402" y="2840" as="sourcePoint" />
            <mxPoint x="406" y="1997" as="targetPoint" />
          </mxGeometry>
        </mxCell>
        <mxCell id="VLtTo_zLVV-p8Gwh8xjY-133" value="" style="html=1;points=[[0,0,0,0,5],[0,1,0,0,-5],[1,0,0,0,5],[1,1,0,0,-5]];perimeter=orthogonalPerimeter;outlineConnect=0;targetShapes=umlLifeline;portConstraint=eastwest;newEdgeStyle={&quot;curved&quot;:0,&quot;rounded&quot;:0};fillColor=#A8DADC;strokeColor=#457B9D;labelBackgroundColor=none;fontColor=#1D3557;" vertex="1" parent="1">
          <mxGeometry x="394" y="2440" width="10" height="290" as="geometry" />
        </mxCell>
        <mxCell id="VLtTo_zLVV-p8Gwh8xjY-137" value="" style="endArrow=none;dashed=1;html=1;dashPattern=1 3;strokeWidth=2;rounded=0;entryX=0.517;entryY=1;entryDx=0;entryDy=0;entryPerimeter=0;labelBackgroundColor=none;strokeColor=#457B9D;fontColor=default;" edge="1" parent="1" source="VLtTo_zLVV-p8Gwh8xjY-138" target="VLtTo_zLVV-p8Gwh8xjY-136">
          <mxGeometry width="50" height="50" relative="1" as="geometry">
            <mxPoint x="681" y="2840" as="sourcePoint" />
            <mxPoint x="680" y="1970" as="targetPoint" />
          </mxGeometry>
        </mxCell>
        <mxCell id="VLtTo_zLVV-p8Gwh8xjY-136" value="" style="html=1;points=[[0,0,0,0,5],[0,1,0,0,-5],[1,0,0,0,5],[1,1,0,0,-5]];perimeter=orthogonalPerimeter;outlineConnect=0;targetShapes=umlLifeline;portConstraint=eastwest;newEdgeStyle={&quot;curved&quot;:0,&quot;rounded&quot;:0};fillColor=#A8DADC;strokeColor=#457B9D;labelBackgroundColor=none;fontColor=#1D3557;" vertex="1" parent="1">
          <mxGeometry x="674" y="2460" width="10" height="90" as="geometry" />
        </mxCell>
        <mxCell id="VLtTo_zLVV-p8Gwh8xjY-139" value="" style="endArrow=none;dashed=1;html=1;dashPattern=1 3;strokeWidth=2;rounded=0;entryX=0.517;entryY=1;entryDx=0;entryDy=0;entryPerimeter=0;labelBackgroundColor=none;strokeColor=#457B9D;fontColor=default;" edge="1" parent="1" target="VLtTo_zLVV-p8Gwh8xjY-138">
          <mxGeometry width="50" height="50" relative="1" as="geometry">
            <mxPoint x="681" y="2840" as="sourcePoint" />
            <mxPoint x="679" y="2550" as="targetPoint" />
          </mxGeometry>
        </mxCell>
        <mxCell id="VLtTo_zLVV-p8Gwh8xjY-138" value="" style="html=1;points=[[0,0,0,0,5],[0,1,0,0,-5],[1,0,0,0,5],[1,1,0,0,-5]];perimeter=orthogonalPerimeter;outlineConnect=0;targetShapes=umlLifeline;portConstraint=eastwest;newEdgeStyle={&quot;curved&quot;:0,&quot;rounded&quot;:0};fillColor=#A8DADC;strokeColor=#457B9D;labelBackgroundColor=none;fontColor=#1D3557;" vertex="1" parent="1">
          <mxGeometry x="674" y="2600" width="10" height="110" as="geometry" />
        </mxCell>
        <mxCell id="VLtTo_zLVV-p8Gwh8xjY-140" value="" style="html=1;points=[[0,0,0,0,5],[0,1,0,0,-5],[1,0,0,0,5],[1,1,0,0,-5]];perimeter=orthogonalPerimeter;outlineConnect=0;targetShapes=umlLifeline;portConstraint=eastwest;newEdgeStyle={&quot;curved&quot;:0,&quot;rounded&quot;:0};fillColor=#A8DADC;strokeColor=#457B9D;labelBackgroundColor=none;fontColor=#1D3557;" vertex="1" parent="1">
          <mxGeometry x="955" y="2600" width="10" height="40" as="geometry" />
        </mxCell>
        <mxCell id="VLtTo_zLVV-p8Gwh8xjY-142" value="" style="endArrow=none;dashed=1;html=1;dashPattern=1 3;strokeWidth=2;rounded=0;entryX=0.5;entryY=1;entryDx=0;entryDy=0;labelBackgroundColor=none;strokeColor=#457B9D;fontColor=default;" edge="1" parent="1" target="VLtTo_zLVV-p8Gwh8xjY-141">
          <mxGeometry width="50" height="50" relative="1" as="geometry">
            <mxPoint x="1240" y="2840" as="sourcePoint" />
            <mxPoint x="1240" y="1920" as="targetPoint" />
          </mxGeometry>
        </mxCell>
        <mxCell id="VLtTo_zLVV-p8Gwh8xjY-141" value="" style="html=1;points=[[0,0,0,0,5],[0,1,0,0,-5],[1,0,0,0,5],[1,1,0,0,-5]];perimeter=orthogonalPerimeter;outlineConnect=0;targetShapes=umlLifeline;portConstraint=eastwest;newEdgeStyle={&quot;curved&quot;:0,&quot;rounded&quot;:0};fillColor=#A8DADC;strokeColor=#457B9D;labelBackgroundColor=none;fontColor=#1D3557;" vertex="1" parent="1">
          <mxGeometry x="1234" y="2640" width="10" height="20" as="geometry" />
        </mxCell>
        <mxCell id="VLtTo_zLVV-p8Gwh8xjY-31" value="[Transaction Done Successfully]" style="text;html=1;strokeColor=none;fillColor=none;align=center;verticalAlign=middle;whiteSpace=wrap;rounded=0;fontColor=#1D3557;labelBackgroundColor=none;" vertex="1" parent="1">
          <mxGeometry x="125" y="1180" width="220" height="20" as="geometry" />
        </mxCell>
        <mxCell id="VLtTo_zLVV-p8Gwh8xjY-32" value="Alt" style="shape=umlFrame;whiteSpace=wrap;html=1;pointerEvents=0;strokeColor=#457B9D;fontColor=#1D3557;fillColor=#A8DADC;labelBackgroundColor=none;" vertex="1" parent="1">
          <mxGeometry x="80" y="1180" width="1180" height="160" as="geometry" />
        </mxCell>
        <mxCell id="VLtTo_zLVV-p8Gwh8xjY-33" value="[Transaction Fail]" style="text;html=1;strokeColor=none;fillColor=none;align=center;verticalAlign=middle;whiteSpace=wrap;rounded=0;fontColor=#1D3557;labelBackgroundColor=none;" vertex="1" parent="1">
          <mxGeometry x="30" y="1245" width="220" height="20" as="geometry" />
        </mxCell>
        <mxCell id="VLtTo_zLVV-p8Gwh8xjY-34" value="" style="endArrow=none;dashed=1;html=1;rounded=0;strokeColor=#457B9D;fontColor=default;fillColor=#A8DADC;entryX=1.001;entryY=0.347;entryDx=0;entryDy=0;entryPerimeter=0;labelBackgroundColor=none;" edge="1" parent="1" target="VLtTo_zLVV-p8Gwh8xjY-32">
          <mxGeometry width="50" height="50" relative="1" as="geometry">
            <mxPoint x="80" y="1240" as="sourcePoint" />
            <mxPoint x="250" y="1200" as="targetPoint" />
          </mxGeometry>
        </mxCell>
        <mxCell id="VLtTo_zLVV-p8Gwh8xjY-38" value="[Changing Name]" style="text;align=center;fontStyle=1;verticalAlign=middle;spacingLeft=3;spacingRight=3;strokeColor=none;rotatable=0;points=[[0,0.5],[1,0.5]];portConstraint=eastwest;html=1;fontColor=#1D3557;labelBackgroundColor=none;" vertex="1" parent="1">
          <mxGeometry x="170" y="760" width="80" height="26" as="geometry" />
        </mxCell>
        <mxCell id="VLtTo_zLVV-p8Gwh8xjY-39" value="Opt" style="shape=umlFrame;whiteSpace=wrap;html=1;pointerEvents=0;strokeColor=#457B9D;fontColor=#1D3557;fillColor=#A8DADC;labelBackgroundColor=none;" vertex="1" parent="1">
          <mxGeometry x="80" y="760" width="1180" height="580" as="geometry" />
        </mxCell>
        <mxCell id="VLtTo_zLVV-p8Gwh8xjY-49" value="[Changing Working Marker]" style="text;align=center;fontStyle=1;verticalAlign=middle;spacingLeft=3;spacingRight=3;strokeColor=none;rotatable=0;points=[[0,0.5],[1,0.5]];portConstraint=eastwest;html=1;fontColor=#1D3557;labelBackgroundColor=none;" vertex="1" parent="1">
          <mxGeometry x="195" y="1390" width="80" height="26" as="geometry" />
        </mxCell>
        <mxCell id="VLtTo_zLVV-p8Gwh8xjY-50" value="Opt" style="shape=umlFrame;whiteSpace=wrap;html=1;pointerEvents=0;strokeColor=#457B9D;fontColor=#1D3557;fillColor=#A8DADC;labelBackgroundColor=none;" vertex="1" parent="1">
          <mxGeometry x="80" y="1380" width="1180" height="650" as="geometry" />
        </mxCell>
        <mxCell id="VLtTo_zLVV-p8Gwh8xjY-51" value="[Transaction Done Successfully]" style="text;html=1;strokeColor=none;fillColor=none;align=center;verticalAlign=middle;whiteSpace=wrap;rounded=0;fontColor=#1D3557;labelBackgroundColor=none;" vertex="1" parent="1">
          <mxGeometry x="125" y="1870" width="220" height="20" as="geometry" />
        </mxCell>
        <mxCell id="VLtTo_zLVV-p8Gwh8xjY-52" value="Alt" style="shape=umlFrame;whiteSpace=wrap;html=1;pointerEvents=0;strokeColor=#457B9D;fontColor=#1D3557;fillColor=#A8DADC;labelBackgroundColor=none;" vertex="1" parent="1">
          <mxGeometry x="80" y="1870" width="1180" height="160" as="geometry" />
        </mxCell>
        <mxCell id="VLtTo_zLVV-p8Gwh8xjY-53" value="[Transaction Fail]" style="text;html=1;strokeColor=none;fillColor=none;align=center;verticalAlign=middle;whiteSpace=wrap;rounded=0;fontColor=#1D3557;labelBackgroundColor=none;" vertex="1" parent="1">
          <mxGeometry x="30" y="1935" width="220" height="20" as="geometry" />
        </mxCell>
        <mxCell id="VLtTo_zLVV-p8Gwh8xjY-54" value="" style="endArrow=none;dashed=1;html=1;rounded=0;strokeColor=#457B9D;fontColor=default;fillColor=#A8DADC;entryX=1.001;entryY=0.347;entryDx=0;entryDy=0;entryPerimeter=0;labelBackgroundColor=none;" edge="1" parent="1" target="VLtTo_zLVV-p8Gwh8xjY-52">
          <mxGeometry width="50" height="50" relative="1" as="geometry">
            <mxPoint x="80" y="1930" as="sourcePoint" />
            <mxPoint x="250" y="1890" as="targetPoint" />
          </mxGeometry>
        </mxCell>
        <mxCell id="VLtTo_zLVV-p8Gwh8xjY-79" value="[Transaction Done Successfully]" style="text;html=1;strokeColor=none;fillColor=none;align=center;verticalAlign=middle;whiteSpace=wrap;rounded=0;fontColor=#1D3557;labelBackgroundColor=none;" vertex="1" parent="1">
          <mxGeometry x="123.82" y="2610" width="220" height="20" as="geometry" />
        </mxCell>
        <mxCell id="VLtTo_zLVV-p8Gwh8xjY-80" value="Alt" style="shape=umlFrame;whiteSpace=wrap;html=1;pointerEvents=0;strokeColor=#457B9D;fontColor=#1D3557;fillColor=#A8DADC;labelBackgroundColor=none;" vertex="1" parent="1">
          <mxGeometry x="78.82" y="2610" width="1180" height="160" as="geometry" />
        </mxCell>
        <mxCell id="VLtTo_zLVV-p8Gwh8xjY-81" value="[Transaction Fail]" style="text;html=1;strokeColor=none;fillColor=none;align=center;verticalAlign=middle;whiteSpace=wrap;rounded=0;fontColor=#1D3557;labelBackgroundColor=none;" vertex="1" parent="1">
          <mxGeometry x="28.82" y="2675" width="220" height="20" as="geometry" />
        </mxCell>
        <mxCell id="VLtTo_zLVV-p8Gwh8xjY-82" value="" style="endArrow=none;dashed=1;html=1;rounded=0;strokeColor=#457B9D;fontColor=default;fillColor=#A8DADC;entryX=1.001;entryY=0.347;entryDx=0;entryDy=0;entryPerimeter=0;labelBackgroundColor=none;" edge="1" parent="1" target="VLtTo_zLVV-p8Gwh8xjY-80">
          <mxGeometry width="50" height="50" relative="1" as="geometry">
            <mxPoint x="78.82" y="2670" as="sourcePoint" />
            <mxPoint x="248.82" y="2630" as="targetPoint" />
          </mxGeometry>
        </mxCell>
        <mxCell id="VLtTo_zLVV-p8Gwh8xjY-86" value="[Changing Departments]" style="text;align=center;fontStyle=1;verticalAlign=middle;spacingLeft=3;spacingRight=3;strokeColor=none;rotatable=0;points=[[0,0.5],[1,0.5]];portConstraint=eastwest;html=1;fontColor=#1D3557;labelBackgroundColor=none;" vertex="1" parent="1">
          <mxGeometry x="193.82" y="2090" width="80" height="26" as="geometry" />
        </mxCell>
        <mxCell id="VLtTo_zLVV-p8Gwh8xjY-87" value="Opt" style="shape=umlFrame;whiteSpace=wrap;html=1;pointerEvents=0;strokeColor=#457B9D;fontColor=#1D3557;fillColor=#A8DADC;labelBackgroundColor=none;" vertex="1" parent="1">
          <mxGeometry x="78.82" y="2080" width="1180" height="690" as="geometry" />
        </mxCell>
      </root>
    </mxGraphModel>
  </diagram>
</mxfile>
